<?xml version="1.0" encoding="UTF-8"?><svg id="_Слой_2" xmlns="http://www.w3.org/2000/svg" viewBox="0 0 559.23 143.92"><g id="_Слой_2-2"><g><rect width="559.23" height="143.92"/><path d="M238.64,22V121.92h-27.73l-.27-.31-48-56.2v56.51h-28V22h27.75l.25,.29,48,56.2V22h28Zm-110.3,99.92h-30.46l-6.76-15.78H46.17l-6.76,15.78H8.95L51.8,21.92h33.69l42.85,100Zm-48.36-41.78l-11.33-26.44-11.34,26.44h22.67ZM422.57,22h-28V121.92h28V22Zm114.51,26V22h-92.36V121.85h92.36v-26h-64.36v-10.93h64.36v-26h-64.36v-10.92h64.36Zm-238.49,17.08v22.53h47.34v2.89c-7,3.96-17.3,5.94-30.9,5.94-11.27,0-19.59-1.93-24.96-5.78-5.38-3.86-8.07-9.79-8.07-17.81v-1.52c0-16.03,11.01-24.05,33.03-24.05,4.97,0,9.64,.43,14,1.29,4.36,.86,7.88,1.95,10.5,3.35,3.97,2.12,5.57,4.95,5.57,4.95h29.59v-.46c0-7.51-2.46-14-7.38-19.48-4.92-5.48-11.98-9.67-21.16-12.56-9.18-2.89-20.07-4.34-32.65-4.34s-23.59,2.13-33.03,6.39c-9.44,4.26-16.74,10.27-21.92,18.04s-7.76,16.82-7.76,27.17v.76c0,10.45,2.59,19.53,7.76,27.24,5.18,7.71,12.58,13.68,22.22,17.89,9.64,4.21,20.9,6.32,33.79,6.32,7.1,0,13.19-.61,18.27-1.83,5.07-1.22,9.84-3.25,14.31-6.09l.61,5.94h27.09v-56.77h-76.26Z" style="fill:#fff;"/></g></g></svg>