<?xml version="1.0" encoding="UTF-8" standalone="no"?>
<svg width="26px" height="23px" viewBox="0 0 26 23" version="1.1" xmlns="http://www.w3.org/2000/svg" xmlns:xlink="http://www.w3.org/1999/xlink">
    <!-- Generator: Sketch 43.2 (39069) - http://www.bohemiancoding.com/sketch -->
    <title>Plus_Dashbord</title>
    <desc>Created with Sketch.</desc>
    <defs></defs>
    <g id="Nginx+Amplify" stroke="none" stroke-width="1" fill="none" fill-rule="evenodd">
        <g id="plus-autorized-copy" transform="translate(-1319.000000, -83.000000)" fill-rule="nonzero" fill="#A0A2A8">
            <g id="Plus_Dashbord" transform="translate(1318.000000, 82.000000)">
                <path d="M8.69193704,3.55326123 C8.53309009,2.70203684 8.89886422,1.83836113 9.62074584,1.36013291 C10.3426275,0.88190468 11.2805648,0.88190468 12.0024464,1.36013291 C12.724328,1.83836113 13.0901022,2.70203684 12.9312552,3.55326123 L16.2662552,6.88042032 C16.6467713,6.7749498 17.0488073,6.7749498 17.4293234,6.88042032 L21.6823151,3.54215342 C21.6566917,3.41038874 21.6435653,3.27649925 21.6431105,3.14226706 C21.6420531,2.26885116 22.1673724,1.48084935 22.9740002,1.14587461 C23.780628,0.810899878 24.7096221,0.994957395 25.3275948,1.61218196 C25.9455675,2.22940653 26.1307503,3.15817699 25.7967529,3.96520996 C25.4627556,4.77224293 24.6753907,5.29851642 23.8019742,5.29851706 C23.5449301,5.29888853 23.2899307,5.25284698 23.0492469,5.16260797 L18.9217098,8.37542032 C19.172161,9.25613906 18.8397925,10.1990481 18.0924274,10.7280439 C17.3450622,11.2570398 16.3452891,11.2570398 15.597924,10.7280439 C14.8505588,10.1990481 14.5181904,9.25613906 14.7686416,8.37542032 L11.5721643,5.17110214 C11.0843838,5.35439931 10.5466493,5.35439931 10.0588689,5.17110214 L6.23339844,8.37542032 C6.49878595,9.31965439 6.09347931,10.3240325 5.24706955,10.819612 C4.4006598,11.3151915 3.32642591,11.1770959 2.63288121,10.4835512 C1.93933651,9.79000648 1.80124091,8.71577259 2.29682041,7.86936284 C2.79239991,7.02295309 3.796778,6.61764644 4.74101207,6.88303396 L8.69193704,3.55326123 Z M2.56818182,20.9959717 C1.70209892,20.9959717 0.99597168,21.6277525 0.99597168,22.4938354 C0.99597168,23.3599184 1.70209892,23.9916992 2.56818182,23.9916992 L25.0454545,23.9916992 C25.9115374,23.9916992 26.9920654,23.3599184 26.9920654,22.4938354 C26.9920654,21.6277525 25.9115374,20.9959717 25.0454545,20.9959717 L2.56818182,20.9959717 Z M9.99713135,9.01525879 C9.45125581,9.02099008 9.00454755,9.47258803 9.00457764,10.0184937 L9.00457764,19.0186768 L12.9970093,19.0186768 L12.9970093,10.0184937 C12.9970093,9.46853101 12.5391594,9.01525879 11.9891968,9.01525879 L9.99713135,9.01525879 Z M21.9777794,8.99133301 C21.9777794,8.99133301 21.00354,9.75494159 21.00354,10.019043 L21.00354,18.9954829 L24.9958496,18.9954829 L24.9958496,10.019043 C24.9958496,10.019043 24.5348282,8.9970643 23.9889526,8.99133301 C23.4430771,8.98560172 21.9777794,8.99133301 21.9777794,8.99133301 Z M18.003418,12.9954834 L16.0037231,12.9954834 C15.7382609,12.994783 14.9920138,13.8027223 14.9934082,14.0681818 L14.9934037,18.9954829 L18.9934037,18.9954829 L19.0014038,14.0681818 C19.0027935,13.8036282 18.2679743,12.9961741 18.003418,12.9954834 Z M4.01080322,12.9954834 C3.46084058,12.9954834 3.00762939,13.4670051 3.00762939,14.0169678 L3.00762939,18.9954829 L7.00030518,18.9954829 L7.00030518,14.0169678 C7.00030518,13.4670051 6.56070483,12.9954834 6.01074219,12.9954834 L4.01080322,12.9954834 Z" id="Shape"></path>
            </g>
        </g>
    </g>
</svg>