<?xml version="1.0" encoding="UTF-8" standalone="no"?>
<svg width="26px" height="26px" viewBox="0 0 26 26" version="1.1" xmlns="http://www.w3.org/2000/svg" xmlns:xlink="http://www.w3.org/1999/xlink">
    <!-- Generator: Sketch 43.2 (39069) - http://www.bohemiancoding.com/sketch -->
    <title>danger</title>
    <desc>Created with Sketch.</desc>
    <defs></defs>
    <g id="Page-1" stroke="none" stroke-width="1" fill="none" fill-rule="evenodd">
        <g id="danger">
            <circle id="Oval" stroke="#E1564B" stroke-width="2" cx="13" cy="13" r="12"></circle>
            <path d="M13,10.9002165 L9.82454255,7.724759 C9.43558302,7.33579948 8.80506819,7.33778895 8.41495139,7.72790576 L7.70636896,8.43648818 C7.31300812,8.82984902 7.3148433,9.45770045 7.7032222,9.84607935 L10.8786797,13.0215368 L7.80372727,16.0964892 C7.41534837,16.4848681 7.41351319,17.1127195 7.80687402,17.5060804 L8.51545645,18.2146628 C8.90557325,18.6047796 9.53608809,18.6067691 9.92504761,18.2178095 L13,15.1428571 L16.0749524,18.2178095 C16.4639119,18.6067691 17.0944267,18.6047796 17.4845436,18.2146628 L18.193126,17.5060804 C18.5864868,17.1127195 18.5846516,16.4848681 18.1962727,16.0964892 L15.1213203,13.0215368 L18.2967778,9.84607935 C18.6851567,9.45770045 18.6869919,8.82984902 18.293631,8.43648818 L17.5850486,7.72790576 C17.1949318,7.33778895 16.564417,7.33579948 16.1754575,7.724759 L13,10.9002165 Z" id="Combined-Shape" fill="#E1564B"></path>
        </g>
    </g>
</svg>