<?xml version="1.0" encoding="UTF-8" standalone="no"?>
<svg width="24px" height="24px" viewBox="0 0 24 24" version="1.1" xmlns="http://www.w3.org/2000/svg" xmlns:xlink="http://www.w3.org/1999/xlink">
    <!-- Generator: Sketch 43.2 (39069) - http://www.bohemiancoding.com/sketch -->
    <title>setting</title>
    <desc>Created with Sketch.</desc>
    <defs></defs>
    <g id="Page-1" stroke="none" stroke-width="1" fill="none" fill-rule="evenodd">
        <g id="setting" fill-rule="nonzero" fill="#A09DA0">
            <path d="M23.9208,10.6704 C23.8824,10.332 23.4888,10.08 23.148,10.08 C22.0421454,10.1043414 21.0383653,9.43670936 20.6332957,8.40742533 C20.2282261,7.3781413 20.5077625,6.20546647 21.3336,5.4696 C21.5943165,5.23342592 21.6268726,4.83540168 21.408,4.56 C20.8473372,3.85089422 20.2089511,3.20687295 19.5048,2.64 C19.228219,2.41930242 18.8276651,2.45189342 18.5904,2.7144 C17.821888,3.52358049 16.6414336,3.78979853 15.6,3.3888 C14.5664464,2.94649799 13.9199933,1.90488363 13.9824,0.7824 C14.0013812,0.429133822 13.7432198,0.121648915 13.392,0.0792 C12.4958847,-0.0238346993 11.5910525,-0.0262497317 10.6944,0.072 C10.3483302,0.110556938 10.0895703,0.407922128 10.0992,0.756 C10.1388976,1.86834334 9.48347075,2.88832153 8.4552,3.3144 C7.4187528,3.69957245 6.25260002,3.43488026 5.484,2.64 C5.24836215,2.38220184 4.85378451,2.34975647 4.5792,2.5656 C3.86139333,3.12921165 3.21072593,3.7734368 2.64,4.4856 C2.42051231,4.76170307 2.45085156,5.1602981 2.7096,5.4 C3.55071655,6.15393966 3.82315584,7.35729339 3.3888,8.4 C2.92207177,9.41391643 1.89318131,10.0494076 0.7776,10.0128 C0.425517817,9.99049939 0.119416812,10.2519607 0.0864,10.6032 C-0.0189781253,11.5089453 -0.0189781253,12.4238547 0.0864,13.3296 C0.1176,13.68 0.5256,13.92 0.8688,13.92 C1.9509053,13.9112777 2.92875684,14.5638129 3.336,15.5664 C3.75235851,16.5981568 3.48559617,17.7799427 2.6664,18.5328 C2.40714624,18.7687081 2.37464571,19.165005 2.592,19.44 C3.14971578,20.15012 3.786635,20.7942861 4.4904,21.36 C4.76575631,21.581906 5.16620228,21.5514258 5.4048,21.2904 C6.17441247,20.4798835 7.35605321,20.2119313 8.4,20.6112 C9.43703486,21.0484603 10.0860485,22.0916897 10.02,23.2152 C10.0010188,23.5684662 10.2591802,23.8759511 10.6104,23.9184 C11.0693585,23.9706058 11.5308822,23.9970473 11.9928,23.9976 C12.4330756,23.9985353 12.8730283,23.9736928 13.3104,23.9232 C13.6583638,23.8845111 13.9177832,23.584296 13.9056,23.2344 C13.8637179,22.1228563 14.5174789,21.1024913 15.5448,20.676 C16.5807953,20.2924716 17.7456312,20.5612799 18.5088,21.36 C18.7444378,21.6177982 19.1390155,21.6502435 19.4136,21.4344 C20.1303139,20.8695512 20.7808478,20.2254582 21.3528,19.5144 C21.574706,19.2390437 21.5442258,18.8385977 21.2832,18.6 C20.4540865,17.8690431 20.1681048,16.6989617 20.566577,15.6679685 C20.9650492,14.6369752 21.9636076,13.9633602 23.0688,13.98 L23.2176,13.98 C23.5708662,13.9989812 23.8783511,13.7408198 23.9208,13.3896 C24.021318,12.4859868 24.021318,11.5740132 23.9208,10.6704 L23.9208,10.6704 Z M12.0192,16.0248 C9.80961917,16.0248 8.0184,14.2335808 8.0184,12.024 C8.0184,9.81441917 9.80961917,8.0232 12.0192,8.0232 C14.2287808,8.0232 16.02,9.81441917 16.02,12.024 C16.0173551,14.2324843 14.2276843,16.0221551 12.0192,16.0248 Z" id="Shape"></path>
        </g>
    </g>
</svg>