<?xml version="1.0" encoding="UTF-8" standalone="no"?>
<svg width="26px" height="26px" viewBox="0 0 26 26" version="1.1" xmlns="http://www.w3.org/2000/svg" xmlns:xlink="http://www.w3.org/1999/xlink">
    <!-- Generator: Sketch 43.2 (39069) - http://www.bohemiancoding.com/sketch -->
    <title>check</title>
    <desc>Created with Sketch.</desc>
    <defs></defs>
    <g id="Page-1" stroke="none" stroke-width="1" fill="none" fill-rule="evenodd">
        <g id="check">
            <circle id="Oval" stroke="#51BD22" stroke-width="2" cx="13" cy="13" r="12"></circle>
            <path d="M12.2267998,15.9082831 L9.58406283,12.8891003 C9.06577465,12.2969843 8.17465444,12.2328534 7.58081153,12.7311467 L7.67707243,12.6503742 C7.07827072,13.1528285 7.0173061,14.027279 7.52982834,14.6128077 L11.3708383,19.000952 C11.4744496,19.1193224 11.592961,19.2165921 11.7210186,19.2924862 C11.6847163,19.2743407 11.648838,19.2546512 11.6134646,19.2333967 L11.837277,19.3678768 C11.8017339,19.3465203 11.7674127,19.3239592 11.7343325,19.30028 C12.2450155,19.5955376 12.9030659,19.5541413 13.3740896,19.1589056 L13.2778287,19.2396781 C13.3398213,19.1876601 13.3960494,19.131655 13.4464734,19.0723963 C13.5554549,18.9771512 13.6525248,18.8651587 13.7335263,18.7374875 L19.3165044,9.93782875 C19.762039,9.23559554 19.544216,8.30488091 18.8223088,7.87111529 L19.0461212,8.00559535 C18.3176526,7.56788725 17.37503,7.79385586 16.9260595,8.50150457 L12.2267998,15.9082831 Z" id="Combined-Shape" fill="#51BD22"></path>
        </g>
    </g>
</svg>