<?xml version="1.0" encoding="UTF-8" standalone="no"?>
<svg width="15px" height="17px" viewBox="0 0 15 17" version="1.1" xmlns="http://www.w3.org/2000/svg" xmlns:xlink="http://www.w3.org/1999/xlink">
    <!-- Generator: Sketch 43.2 (39069) - http://www.bohemiancoding.com/sketch -->
    <title>snowflake</title>
    <desc>Created with Sketch.</desc>
    <defs></defs>
    <g id="Page-1" stroke="none" stroke-width="1" fill="none" fill-rule="evenodd">
        <g id="snowflake" fill-rule="nonzero" fill="#14A2E9">
            <path d="M14.6418086,11.7526772 L13.3697264,11.0295724 C13.2263932,10.9413888 13.2263932,10.7473851 13.3876431,10.6768383 L14.3730589,10.2359207 C14.6597253,10.0948271 14.8388918,9.77736646 14.7672252,9.47754251 C14.6597253,9.07189834 14.211809,8.87789461 13.853476,9.03662493 L11.6138947,10.041917 L9.91181288,9.07189834 C9.44597997,8.8073478 9.44597997,8.13715309 9.91181288,7.87260254 L11.6138947,6.90258388 L13.853476,7.90787595 C13.9430593,7.94314936 14.0326425,7.96078606 14.1222258,7.96078606 C14.4088922,7.96078606 14.6597253,7.78441903 14.7493085,7.50223178 C14.8568084,7.18477113 14.6776419,6.84967378 14.3730589,6.70858015 L13.3876431,6.26766258 C13.2443099,6.19711577 13.2263932,5.98547533 13.3697264,5.91492852 L14.6418086,5.1918237 C14.928475,5.03309338 15.0718082,4.69799602 14.9643083,4.39817207 C14.8209751,3.99252791 14.3551422,3.85143429 13.9968092,4.04543802 L12.7068104,4.78617954 C12.5634772,4.87436305 12.3843107,4.75090613 12.4022273,4.59217581 L12.5097272,3.53397363 C12.5455605,3.19887628 12.2947274,2.84614222 11.954311,2.79323211 C11.5780614,2.740322 11.237645,3.00487255 11.2018117,3.37524331 L10.9688953,5.7914716 L9.26681346,6.76149026 C8.80098055,7.02604081 8.20973108,6.69094345 8.20973108,6.16184236 L8.20973108,4.22180505 L10.1805626,2.82850552 C10.4493124,2.65213849 10.5568123,2.29940443 10.4313957,2.01721718 C10.2522292,1.62920972 9.76847968,1.5233895 9.44597997,1.75266664 L8.53223079,2.38758795 C8.38889758,2.47577146 8.20973108,2.38758795 8.20973108,2.22885762 L8.20973108,0.800284686 C8.20973108,0.465187331 7.92306467,0.130089976 7.58264831,0.112453273 C7.20639865,0.0948165701 6.88389894,0.394640519 6.88389894,0.76501128 L6.88389894,2.22885762 C6.88389894,2.38758795 6.68681578,2.49340816 6.56139923,2.38758795 L5.68348335,1.77030334 C5.41473359,1.59393632 5.05640058,1.59393632 4.82348412,1.80557675 C4.51890107,2.1054007 4.55473437,2.58159168 4.89515073,2.81086881 L6.90181559,4.20416834 L6.90181559,6.14420566 C6.90181559,6.67330675 6.31056612,7.0084041 5.84473321,6.74385356 L4.1426514,5.7738349 L3.90973495,3.39288001 C3.87390165,3.07541936 3.64098519,2.81086881 3.31848548,2.77559541 C2.88848586,2.740322 2.5480695,3.09305606 2.58390281,3.48106352 L2.69140271,4.5745391 C2.70931936,4.73326943 2.53015285,4.85672635 2.38681965,4.76854284 L1.13265411,4.04543802 C0.828071051,3.86907099 0.398071438,3.9572545 0.218904932,4.23944175 C0.00390512562,4.5569024 0.111405029,4.98018327 0.451821389,5.1565503 L1.74182023,5.89729182 C1.88515343,5.98547533 1.88515343,6.17947907 1.72390358,6.25002588 L0.684737847,6.70858015 C0.380154787,6.84967378 0.200988282,7.18477113 0.308488185,7.50223178 C0.398071438,7.78441903 0.666821196,7.96078606 0.935570954,7.96078606 C1.02515421,7.96078606 1.11473746,7.94314936 1.20432071,7.90787595 L3.44390203,6.90258388 L5.14598383,7.87260254 C5.61181675,8.13715309 5.61181675,8.8073478 5.14598383,9.07189834 L3.44390203,10.041917 L1.20432071,9.03662493 C0.828071051,8.87789461 0.380154787,9.07189834 0.290571534,9.47754251 C0.218904932,9.79500316 0.398071438,10.1124638 0.684737847,10.2359207 L1.67015363,10.6768383 C1.81348683,10.7473851 1.83140348,10.9590255 1.68807028,11.0295724 L0.415988088,11.7526772 C0.129321679,11.9114075 -0.0140115249,12.2465049 0.111405029,12.5463288 C0.218904932,12.8108794 0.46973804,12.9696097 0.738487798,12.9696097 C0.845987702,12.9696097 0.971404255,12.9343363 1.06098751,12.8814262 L2.35098635,12.1406846 C2.49431955,12.0525011 2.67348606,12.175958 2.65556941,12.3346884 L2.5480695,13.4105273 C2.5122362,13.7632613 2.74515266,14.080722 3.10348567,14.1336321 L3.21098557,14.1336321 C3.55140194,14.1336321 3.83806834,13.8867182 3.87390165,13.5339842 L4.1068181,11.1177559 L5.8088999,10.1477372 C6.27473282,9.88318667 6.86598229,10.218284 6.86598229,10.7473851 L6.86598229,12.6874224 L4.87723408,14.1159954 C4.59056767,14.3099991 4.48306776,14.6803699 4.66223427,14.9801938 C4.78765082,15.1918342 5.02056728,15.3152912 5.23556709,15.3152912 C5.36098364,15.3152912 5.50431685,15.2800178 5.61181675,15.1918342 L6.52556593,14.5569129 C6.66889913,14.4687294 6.84806564,14.5569129 6.84806564,14.7156433 L6.84806564,16.1442162 C6.84806564,16.4793136 7.13473205,16.8144109 7.47514841,16.8320476 C7.85139807,16.8496843 8.17389778,16.5498604 8.17389778,16.1794896 L8.17389778,14.7156433 C8.17389778,14.5569129 8.37098093,14.4510927 8.49639749,14.5569129 L9.41014667,15.1918342 C9.53556322,15.2800178 9.66097977,15.3152912 9.78639633,15.3152912 C10.0193128,15.3152912 10.2343126,15.1918342 10.3597291,14.9801938 C10.520979,14.6803699 10.4134791,14.3099991 10.1447293,14.1159954 L8.17389778,12.7403325 L8.17389778,10.8002952 C8.17389778,10.2711941 8.76514725,9.93609678 9.23098016,10.2006473 L10.933062,11.170666 L11.1838951,13.5868943 C11.2197284,13.9219916 11.5063948,14.1865422 11.8468111,14.1865422 C11.8826444,14.1865422 11.9184777,14.1865422 11.954311,14.1689055 C12.2947274,14.1159954 12.5276439,13.780898 12.5097272,13.4458007 L12.3843107,12.3523251 C12.366394,12.1935948 12.5455605,12.0701378 12.6888937,12.1583213 L13.9788926,12.8990629 C14.0863925,12.951973 14.1938924,12.9872464 14.3013923,12.9872464 C14.570142,12.9872464 14.8209751,12.8285161 14.928475,12.5639655 C15.0718082,12.2641416 14.9105584,11.9114075 14.6418086,11.7526772 Z" id="Shape"></path>
        </g>
    </g>
</svg>