<?xml version="1.0" encoding="UTF-8" standalone="no"?>
<svg width="19px" height="19px" viewBox="0 0 19 19" version="1.1" xmlns="http://www.w3.org/2000/svg" xmlns:xlink="http://www.w3.org/1999/xlink">
    <!-- Generator: Sketch 43.2 (39069) - http://www.bohemiancoding.com/sketch -->
    <title>sun</title>
    <desc>Created with Sketch.</desc>
    <defs></defs>
    <g id="Page-1" stroke="none" stroke-width="1" fill="none" fill-rule="evenodd">
        <g id="sun" fill-rule="nonzero" fill="#FFBF00">
            <g id="Group">
                <path d="M10.1045094,1.18189792 C9.82968512,0.705884842 9.38374792,0.706467417 9.10923215,1.18189792 L7.59362,3.806768 L11.619968,3.806768 L10.1045094,1.18189792 Z" id="Shape"></path>
                <path d="M6.973256,3.975272 L4.04569349,3.19082101 C3.51478797,3.04856294 3.19990105,3.36429633 3.34198501,3.89457992 L4.126436,6.822296 L6.973256,3.975272 Z" id="Shape"></path>
                <path d="M3.806768,7.380032 L1.18189792,8.89549058 C0.705884842,9.17031488 0.706467417,9.61625208 1.18189792,9.89076785 L3.806768,11.40638 L3.806768,7.380032 Z" id="Shape"></path>
                <path d="M3.19082101,14.9544601 C3.04856294,15.4853935 3.36429633,15.8002803 3.89457992,15.6581686 L6.822296,14.873564 L3.975272,12.026744 L3.19082101,14.9544601 Z" id="Shape"></path>
                <path d="M8.89549058,17.8181021 C9.17031488,18.2941152 9.61625208,18.2935326 9.89076785,17.8181021 L11.40638,15.193232 L7.380032,15.193232 L8.89549058,17.8181021 Z" id="Shape"></path>
                <path d="M12.026744,15.024728 L14.9544601,15.809179 C15.4853935,15.9514371 15.8002803,15.6357037 15.6581686,15.1054201 L14.873564,12.177704 L12.026744,15.024728 Z" id="Shape"></path>
                <path d="M15.193232,11.619968 L17.8181021,10.1045094 C18.2941152,9.82968512 18.2935326,9.38374792 17.8181021,9.10923215 L15.193232,7.59362 L15.193232,11.619968 Z" id="Shape"></path>
                <path d="M15.809179,4.04569349 C15.9514371,3.51478797 15.6357037,3.19990105 15.1054201,3.34198501 L12.177704,4.126436 L15.024728,6.973256 L15.809179,4.04569349 Z" id="Shape"></path>
                <circle id="Oval" stroke="#FFFFFF" cx="9.5" cy="9.5" r="5.239944"></circle>
            </g>
        </g>
    </g>
</svg>